solid 1x1 Haut
facet normal 0.0 0.0 -1.0
  outer loop
    vertex 0.0 7.8 0.0
    vertex 1.5 6.3 0.0
    vertex 0.0 0.0 0.0
  endloop
endfacet
facet normal 0.0 0.0 -1.0
  outer loop
    vertex 1.5 6.3 0.0
    vertex 0.0 7.8 0.0
    vertex 7.8 7.8 0.0
  endloop
endfacet
facet normal 0.0 0.0 -1.0
  outer loop
    vertex 1.5 6.3 0.0
    vertex 7.8 7.8 0.0
    vertex 6.3 6.3 0.0
  endloop
endfacet
facet normal 0.0 0.0 -1.0
  outer loop
    vertex 6.3 6.3 0.0
    vertex 7.8 7.8 0.0
    vertex 6.3 1.5 0.0
  endloop
endfacet
facet normal 0.0 0.0 -1.0
  outer loop
    vertex 0.0 0.0 0.0
    vertex 1.5 1.5 0.0
    vertex 7.8 0.0 0.0
  endloop
endfacet
facet normal 0.0 0.0 -1.0
  outer loop
    vertex 1.5 1.5 0.0
    vertex 0.0 0.0 0.0
    vertex 1.5 6.3 0.0
  endloop
endfacet
facet normal 0.0 0.0 -1.0
  outer loop
    vertex 7.8 0.0 0.0
    vertex 1.5 1.5 0.0
    vertex 6.3 1.5 0.0
  endloop
endfacet
facet normal 0.0 0.0 -1.0
  outer loop
    vertex 7.8 0.0 0.0
    vertex 6.3 1.5 0.0
    vertex 7.8 7.8 0.0
  endloop
endfacet
facet normal -0.0 -0.0 1.0
  outer loop
    vertex 0.0 0.0 9.6
    vertex 1.6411257699296642 3.0891441479990753 9.6
    vertex 0.0 7.8 9.6
  endloop
endfacet
facet normal -0.0 -0.0 1.0
  outer loop
    vertex 1.6411257699296642 3.0891441479990753 9.6
    vertex 0.0 0.0 9.6
    vertex 1.9279599801668978 2.532133719921185 9.6
  endloop
endfacet
facet normal -0.0 -0.0 1.0
  outer loop
    vertex 1.9279599801668978 2.532133719921185 9.6
    vertex 0.0 0.0 9.6
    vertex 2.3491854588055365 2.0683411183247564 9.6
  endloop
endfacet
facet normal -0.0 -0.0 1.0
  outer loop
    vertex 2.3491854588055365 2.0683411183247564 9.6
    vertex 0.0 0.0 9.6
    vertex 2.8760963855843733 1.7293730425550742 9.6
  endloop
endfacet
facet normal -0.0 -0.0 1.0
  outer loop
    vertex 2.8760963855843733 1.7293730425550742 9.6
    vertex 0.0 0.0 9.6
    vertex 7.8 0.0 9.6
  endloop
endfacet
facet normal -0.0 -0.0 1.0
  outer loop
    vertex 0.0 7.8 9.6
    vertex 1.6411257699296642 3.0891441479990753 9.6
    vertex 1.508230105505558 3.701413062388177 9.6
  endloop
endfacet
facet normal -0.0 -0.0 1.0
  outer loop
    vertex 2.8760963855843733 1.7293730425550742 9.6
    vertex 7.8 0.0 9.6
    vertex 3.4727846516049072 1.5383296068046115 9.6
  endloop
endfacet
facet normal -0.0 -0.0 1.0
  outer loop
    vertex 3.4727846516049072 1.5383296068046115 9.6
    vertex 7.8 0.0 9.6
    vertex 4.098586937611823 1.508230105505557 9.6
  endloop
endfacet
facet normal -0.0 -0.0 1.0
  outer loop
    vertex 4.098586937611823 1.508230105505557 9.6
    vertex 7.8 0.0 9.6
    vertex 4.7108558520009245 1.6411257699296635 9.6
  endloop
endfacet
facet normal -0.0 -0.0 1.0
  outer loop
    vertex 4.7108558520009245 1.6411257699296635 9.6
    vertex 7.8 0.0 9.6
    vertex 5.267866280078815 1.9279599801668967 9.6
  endloop
endfacet
facet normal -0.0 -0.0 1.0
  outer loop
    vertex 5.267866280078815 1.9279599801668967 9.6
    vertex 7.8 0.0 9.6
    vertex 5.731658881675243 2.3491854588055356 9.6
  endloop
endfacet
facet normal -0.0 -0.0 1.0
  outer loop
    vertex 5.731658881675243 2.3491854588055356 9.6
    vertex 7.8 0.0 9.6
    vertex 6.070626957444926 2.876096385584372 9.6
  endloop
endfacet
facet normal -0.0 -0.0 1.0
  outer loop
    vertex 6.070626957444926 2.876096385584372 9.6
    vertex 7.8 0.0 9.6
    vertex 6.261670393195388 3.4727846516049063 9.6
  endloop
endfacet
facet normal -0.0 -0.0 1.0
  outer loop
    vertex 6.261670393195388 3.4727846516049063 9.6
    vertex 7.8 0.0 9.6
    vertex 6.291769894494443 4.098586937611825 9.6
  endloop
endfacet
facet normal -0.0 -0.0 1.0
  outer loop
    vertex 0.0 7.8 9.6
    vertex 3.089144147999076 6.158874230070336 9.6
    vertex 7.8 7.8 9.6
  endloop
endfacet
facet normal -0.0 -0.0 1.0
  outer loop
    vertex 3.089144147999076 6.158874230070336 9.6
    vertex 0.0 7.8 9.6
    vertex 2.5321337199211844 5.872040019833102 9.6
  endloop
endfacet
facet normal -0.0 -0.0 1.0
  outer loop
    vertex 2.5321337199211844 5.872040019833102 9.6
    vertex 0.0 7.8 9.6
    vertex 2.0683411183247573 5.450814541194464 9.6
  endloop
endfacet
facet normal -0.0 -0.0 1.0
  outer loop
    vertex 2.0683411183247573 5.450814541194464 9.6
    vertex 0.0 7.8 9.6
    vertex 1.7293730425550753 4.923903614415626 9.6
  endloop
endfacet
facet normal -0.0 -0.0 1.0
  outer loop
    vertex 1.7293730425550753 4.923903614415626 9.6
    vertex 0.0 7.8 9.6
    vertex 1.5383296068046128 4.327215348395093 9.6
  endloop
endfacet
facet normal -0.0 -0.0 1.0
  outer loop
    vertex 1.5383296068046128 4.327215348395093 9.6
    vertex 0.0 7.8 9.6
    vertex 1.508230105505558 3.701413062388177 9.6
  endloop
endfacet
facet normal -0.0 -0.0 1.0
  outer loop
    vertex 7.8 7.8 9.6
    vertex 3.089144147999076 6.158874230070336 9.6
    vertex 3.701413062388177 6.2917698944944425 9.6
  endloop
endfacet
facet normal -0.0 -0.0 1.0
  outer loop
    vertex 7.8 7.8 9.6
    vertex 3.701413062388177 6.2917698944944425 9.6
    vertex 4.327215348395094 6.261670393195388 9.6
  endloop
endfacet
facet normal -0.0 -0.0 1.0
  outer loop
    vertex 7.8 7.8 9.6
    vertex 4.327215348395094 6.261670393195388 9.6
    vertex 4.923903614415628 6.070626957444926 9.6
  endloop
endfacet
facet normal -0.0 -0.0 1.0
  outer loop
    vertex 7.8 7.8 9.6
    vertex 4.923903614415628 6.070626957444926 9.6
    vertex 5.450814541194464 5.731658881675245 9.6
  endloop
endfacet
facet normal -0.0 -0.0 1.0
  outer loop
    vertex 7.8 7.8 9.6
    vertex 5.450814541194464 5.731658881675245 9.6
    vertex 5.872040019833103 5.267866280078815 9.6
  endloop
endfacet
facet normal -0.0 -0.0 1.0
  outer loop
    vertex 7.8 7.8 9.6
    vertex 5.872040019833103 5.267866280078815 9.6
    vertex 6.158874230070336 4.7108558520009245 9.6
  endloop
endfacet
facet normal -0.0 -0.0 1.0
  outer loop
    vertex 7.8 7.8 9.6
    vertex 6.158874230070336 4.7108558520009245 9.6
    vertex 6.291769894494443 4.098586937611825 9.6
  endloop
endfacet
facet normal -0.0 -0.0 1.0
  outer loop
    vertex 7.8 7.8 9.6
    vertex 6.291769894494443 4.098586937611825 9.6
    vertex 7.8 0.0 9.6
  endloop
endfacet
facet normal 1.0 0.0 0.0
  outer loop
    vertex 7.8 7.8 0.0
    vertex 7.8 0.0 9.6
    vertex 7.8 0.0 0.0
  endloop
endfacet
facet normal 1.0 0.0 0.0
  outer loop
    vertex 7.8 0.0 9.6
    vertex 7.8 7.8 0.0
    vertex 7.8 7.8 9.6
  endloop
endfacet
facet normal -0.0 -1.0 -0.0
  outer loop
    vertex 7.8 0.0 9.6
    vertex 0.0 0.0 0.0
    vertex 7.8 0.0 0.0
  endloop
endfacet
facet normal -0.0 -1.0 -0.0
  outer loop
    vertex 0.0 0.0 0.0
    vertex 7.8 0.0 9.6
    vertex 0.0 0.0 9.6
  endloop
endfacet
facet normal -1.0 0.0 0.0
  outer loop
    vertex 0.0 7.8 9.6
    vertex 0.0 0.0 0.0
    vertex 0.0 0.0 9.6
  endloop
endfacet
facet normal -1.0 0.0 0.0
  outer loop
    vertex 0.0 0.0 0.0
    vertex 0.0 7.8 9.6
    vertex 0.0 7.8 0.0
  endloop
endfacet
facet normal -0.0 1.0 0.0
  outer loop
    vertex 0.0 7.8 9.6
    vertex 7.8 7.8 0.0
    vertex 0.0 7.8 0.0
  endloop
endfacet
facet normal -0.0 1.0 0.0
  outer loop
    vertex 7.8 7.8 0.0
    vertex 0.0 7.8 9.6
    vertex 7.8 7.8 9.6
  endloop
endfacet
facet normal 0.0 0.0 1.0
  outer loop
    vertex 1.6411257699296642 3.0891441479990753 11.399999999999999
    vertex 1.5383296068046128 4.327215348395093 11.399999999999999
    vertex 1.508230105505558 3.701413062388177 11.399999999999999
  endloop
endfacet
facet normal 0.0 0.0 1.0
  outer loop
    vertex 1.5383296068046128 4.327215348395093 11.399999999999999
    vertex 1.6411257699296642 3.0891441479990753 11.399999999999999
    vertex 1.7293730425550753 4.923903614415626 11.399999999999999
  endloop
endfacet
facet normal 0.0 0.0 1.0
  outer loop
    vertex 1.7293730425550753 4.923903614415626 11.399999999999999
    vertex 1.6411257699296642 3.0891441479990753 11.399999999999999
    vertex 1.9279599801668978 2.532133719921185 11.399999999999999
  endloop
endfacet
facet normal 0.0 0.0 1.0
  outer loop
    vertex 1.7293730425550753 4.923903614415626 11.399999999999999
    vertex 1.9279599801668978 2.532133719921185 11.399999999999999
    vertex 2.0683411183247573 5.450814541194464 11.399999999999999
  endloop
endfacet
facet normal 0.0 0.0 1.0
  outer loop
    vertex 2.0683411183247573 5.450814541194464 11.399999999999999
    vertex 1.9279599801668978 2.532133719921185 11.399999999999999
    vertex 2.3491854588055365 2.0683411183247564 11.399999999999999
  endloop
endfacet
facet normal 0.0 0.0 1.0
  outer loop
    vertex 2.0683411183247573 5.450814541194464 11.399999999999999
    vertex 2.3491854588055365 2.0683411183247564 11.399999999999999
    vertex 2.5321337199211844 5.872040019833102 11.399999999999999
  endloop
endfacet
facet normal 0.0 0.0 1.0
  outer loop
    vertex 2.5321337199211844 5.872040019833102 11.399999999999999
    vertex 2.3491854588055365 2.0683411183247564 11.399999999999999
    vertex 2.8760963855843733 1.7293730425550742 11.399999999999999
  endloop
endfacet
facet normal 0.0 0.0 1.0
  outer loop
    vertex 2.5321337199211844 5.872040019833102 11.399999999999999
    vertex 2.8760963855843733 1.7293730425550742 11.399999999999999
    vertex 3.089144147999076 6.158874230070336 11.399999999999999
  endloop
endfacet
facet normal 0.0 0.0 1.0
  outer loop
    vertex 3.089144147999076 6.158874230070336 11.399999999999999
    vertex 2.8760963855843733 1.7293730425550742 11.399999999999999
    vertex 3.4727846516049072 1.5383296068046115 11.399999999999999
  endloop
endfacet
facet normal 0.0 0.0 1.0
  outer loop
    vertex 3.089144147999076 6.158874230070336 11.399999999999999
    vertex 3.4727846516049072 1.5383296068046115 11.399999999999999
    vertex 3.701413062388177 6.2917698944944425 11.399999999999999
  endloop
endfacet
facet normal 0.0 0.0 1.0
  outer loop
    vertex 3.701413062388177 6.2917698944944425 11.399999999999999
    vertex 3.4727846516049072 1.5383296068046115 11.399999999999999
    vertex 4.098586937611823 1.508230105505557 11.399999999999999
  endloop
endfacet
facet normal 0.0 0.0 1.0
  outer loop
    vertex 3.701413062388177 6.2917698944944425 11.399999999999999
    vertex 4.098586937611823 1.508230105505557 11.399999999999999
    vertex 4.327215348395094 6.261670393195388 11.399999999999999
  endloop
endfacet
facet normal 0.0 0.0 1.0
  outer loop
    vertex 4.327215348395094 6.261670393195388 11.399999999999999
    vertex 4.098586937611823 1.508230105505557 11.399999999999999
    vertex 4.7108558520009245 1.6411257699296635 11.399999999999999
  endloop
endfacet
facet normal 0.0 0.0 1.0
  outer loop
    vertex 4.327215348395094 6.261670393195388 11.399999999999999
    vertex 4.7108558520009245 1.6411257699296635 11.399999999999999
    vertex 4.923903614415628 6.070626957444926 11.399999999999999
  endloop
endfacet
facet normal 0.0 0.0 1.0
  outer loop
    vertex 4.923903614415628 6.070626957444926 11.399999999999999
    vertex 4.7108558520009245 1.6411257699296635 11.399999999999999
    vertex 5.267866280078815 1.9279599801668967 11.399999999999999
  endloop
endfacet
facet normal 0.0 0.0 1.0
  outer loop
    vertex 4.923903614415628 6.070626957444926 11.399999999999999
    vertex 5.267866280078815 1.9279599801668967 11.399999999999999
    vertex 5.450814541194464 5.731658881675245 11.399999999999999
  endloop
endfacet
facet normal 0.0 0.0 1.0
  outer loop
    vertex 5.450814541194464 5.731658881675245 11.399999999999999
    vertex 5.267866280078815 1.9279599801668967 11.399999999999999
    vertex 5.731658881675243 2.3491854588055356 11.399999999999999
  endloop
endfacet
facet normal 0.0 0.0 1.0
  outer loop
    vertex 5.450814541194464 5.731658881675245 11.399999999999999
    vertex 5.731658881675243 2.3491854588055356 11.399999999999999
    vertex 5.872040019833103 5.267866280078815 11.399999999999999
  endloop
endfacet
facet normal 0.0 0.0 1.0
  outer loop
    vertex 5.872040019833103 5.267866280078815 11.399999999999999
    vertex 5.731658881675243 2.3491854588055356 11.399999999999999
    vertex 6.070626957444926 2.876096385584372 11.399999999999999
  endloop
endfacet
facet normal 0.0 0.0 1.0
  outer loop
    vertex 5.872040019833103 5.267866280078815 11.399999999999999
    vertex 6.070626957444926 2.876096385584372 11.399999999999999
    vertex 6.158874230070336 4.7108558520009245 11.399999999999999
  endloop
endfacet
facet normal 0.0 0.0 1.0
  outer loop
    vertex 6.158874230070336 4.7108558520009245 11.399999999999999
    vertex 6.070626957444926 2.876096385584372 11.399999999999999
    vertex 6.261670393195388 3.4727846516049063 11.399999999999999
  endloop
endfacet
facet normal 0.0 0.0 1.0
  outer loop
    vertex 6.158874230070336 4.7108558520009245 11.399999999999999
    vertex 6.261670393195388 3.4727846516049063 11.399999999999999
    vertex 6.291769894494443 4.098586937611825 11.399999999999999
  endloop
endfacet
facet normal 0.9988453201150868 -0.048041924234879796 0.0
  outer loop
    vertex 6.291769894494443 4.098586937611825 9.6
    vertex 6.261670393195388 3.4727846516049063 11.399999999999999
    vertex 6.261670393195388 3.4727846516049063 9.6
  endloop
endfacet
facet normal 0.9988453201150868 -0.048041924234879796 0.0
  outer loop
    vertex 6.261670393195388 3.4727846516049063 11.399999999999999
    vertex 6.291769894494443 4.098586937611825 9.6
    vertex 6.291769894494443 4.098586937611825 11.399999999999999
  endloop
endfacet
facet normal 0.977244656122493 0.2121152565942167 0.0
  outer loop
    vertex 6.158874230070336 4.7108558520009245 9.6
    vertex 6.291769894494443 4.098586937611825 11.399999999999999
    vertex 6.291769894494443 4.098586937611825 9.6
  endloop
endfacet
facet normal 0.977244656122493 0.2121152565942167 0.0
  outer loop
    vertex 6.291769894494443 4.098586937611825 11.399999999999999
    vertex 6.158874230070336 4.7108558520009245 9.6
    vertex 6.158874230070336 4.7108558520009245 11.399999999999999
  endloop
endfacet
facet normal 0.8890463837883051 0.4578171332234496 0.0
  outer loop
    vertex 5.872040019833103 5.267866280078815 9.6
    vertex 6.158874230070336 4.7108558520009245 11.399999999999999
    vertex 6.158874230070336 4.7108558520009245 9.6
  endloop
endfacet
facet normal 0.8890463837883051 0.4578171332234496 0.0
  outer loop
    vertex 6.158874230070336 4.7108558520009245 11.399999999999999
    vertex 5.872040019833103 5.267866280078815 9.6
    vertex 5.872040019833103 5.267866280078815 11.399999999999999
  endloop
endfacet
facet normal 0.7402610696175593 0.6723195288020921 0.0
  outer loop
    vertex 5.450814541194464 5.731658881675245 9.6
    vertex 5.872040019833103 5.267866280078815 11.399999999999999
    vertex 5.872040019833103 5.267866280078815 9.6
  endloop
endfacet
facet normal 0.7402610696175593 0.6723195288020921 0.0
  outer loop
    vertex 5.872040019833103 5.267866280078815 11.399999999999999
    vertex 5.450814541194464 5.731658881675245 9.6
    vertex 5.450814541194464 5.731658881675245 11.399999999999999
  endloop
endfacet
facet normal 0.5410281868916359 0.8410044595534253 0.0
  outer loop
    vertex 4.923903614415628 6.070626957444926 11.399999999999999
    vertex 5.450814541194464 5.731658881675245 9.6
    vertex 4.923903614415628 6.070626957444926 9.6
  endloop
endfacet
facet normal 0.5410281868916359 0.8410044595534253 0.0
  outer loop
    vertex 5.450814541194464 5.731658881675245 9.6
    vertex 4.923903614415628 6.070626957444926 11.399999999999999
    vertex 5.450814541194464 5.731658881675245 11.399999999999999
  endloop
endfacet
facet normal 0.30492512732040117 0.9523763262117749 0.0
  outer loop
    vertex 4.327215348395094 6.261670393195388 11.399999999999999
    vertex 4.923903614415628 6.070626957444926 9.6
    vertex 4.327215348395094 6.261670393195388 9.6
  endloop
endfacet
facet normal 0.30492512732040117 0.9523763262117749 0.0
  outer loop
    vertex 4.923903614415628 6.070626957444926 9.6
    vertex 4.327215348395094 6.261670393195388 11.399999999999999
    vertex 4.923903614415628 6.070626957444926 11.399999999999999
  endloop
endfacet
facet normal 0.04804192423487872 0.9988453201150868 0.0
  outer loop
    vertex 3.701413062388177 6.2917698944944425 11.399999999999999
    vertex 4.327215348395094 6.261670393195388 9.6
    vertex 3.701413062388177 6.2917698944944425 9.6
  endloop
endfacet
facet normal 0.04804192423487872 0.9988453201150868 0.0
  outer loop
    vertex 4.327215348395094 6.261670393195388 9.6
    vertex 3.701413062388177 6.2917698944944425 11.399999999999999
    vertex 4.327215348395094 6.261670393195388 11.399999999999999
  endloop
endfacet
facet normal -0.2121152565942155 0.9772446561224932 0.0
  outer loop
    vertex 3.089144147999076 6.158874230070336 11.399999999999999
    vertex 3.701413062388177 6.2917698944944425 9.6
    vertex 3.089144147999076 6.158874230070336 9.6
  endloop
endfacet
facet normal -0.2121152565942155 0.9772446561224932 0.0
  outer loop
    vertex 3.701413062388177 6.2917698944944425 9.6
    vertex 3.089144147999076 6.158874230070336 11.399999999999999
    vertex 3.701413062388177 6.2917698944944425 11.399999999999999
  endloop
endfacet
facet normal -0.45781713322345063 0.8890463837883045 0.0
  outer loop
    vertex 2.5321337199211844 5.872040019833102 11.399999999999999
    vertex 3.089144147999076 6.158874230070336 9.6
    vertex 2.5321337199211844 5.872040019833102 9.6
  endloop
endfacet
facet normal -0.45781713322345063 0.8890463837883045 0.0
  outer loop
    vertex 3.089144147999076 6.158874230070336 9.6
    vertex 2.5321337199211844 5.872040019833102 11.399999999999999
    vertex 3.089144147999076 6.158874230070336 11.399999999999999
  endloop
endfacet
facet normal -0.6723195288020922 0.7402610696175591 0.0
  outer loop
    vertex 2.0683411183247573 5.450814541194464 11.399999999999999
    vertex 2.5321337199211844 5.872040019833102 9.6
    vertex 2.0683411183247573 5.450814541194464 9.6
  endloop
endfacet
facet normal -0.6723195288020922 0.7402610696175591 0.0
  outer loop
    vertex 2.5321337199211844 5.872040019833102 9.6
    vertex 2.0683411183247573 5.450814541194464 11.399999999999999
    vertex 2.5321337199211844 5.872040019833102 11.399999999999999
  endloop
endfacet
facet normal -0.8410044595534256 0.5410281868916356 0.0
  outer loop
    vertex 2.0683411183247573 5.450814541194464 11.399999999999999
    vertex 1.7293730425550753 4.923903614415626 9.6
    vertex 1.7293730425550753 4.923903614415626 11.399999999999999
  endloop
endfacet
facet normal -0.8410044595534256 0.5410281868916356 0.0
  outer loop
    vertex 1.7293730425550753 4.923903614415626 9.6
    vertex 2.0683411183247573 5.450814541194464 11.399999999999999
    vertex 2.0683411183247573 5.450814541194464 9.6
  endloop
endfacet
facet normal -0.9523763262117748 0.3049251273204015 0.0
  outer loop
    vertex 1.7293730425550753 4.923903614415626 11.399999999999999
    vertex 1.5383296068046128 4.327215348395093 9.6
    vertex 1.5383296068046128 4.327215348395093 11.399999999999999
  endloop
endfacet
facet normal -0.9523763262117748 0.3049251273204015 0.0
  outer loop
    vertex 1.5383296068046128 4.327215348395093 9.6
    vertex 1.7293730425550753 4.923903614415626 11.399999999999999
    vertex 1.7293730425550753 4.923903614415626 9.6
  endloop
endfacet
facet normal -0.9988453201150869 0.04804192423487991 0.0
  outer loop
    vertex 1.5383296068046128 4.327215348395093 11.399999999999999
    vertex 1.508230105505558 3.701413062388177 9.6
    vertex 1.508230105505558 3.701413062388177 11.399999999999999
  endloop
endfacet
facet normal -0.9988453201150869 0.04804192423487991 0.0
  outer loop
    vertex 1.508230105505558 3.701413062388177 9.6
    vertex 1.5383296068046128 4.327215348395093 11.399999999999999
    vertex 1.5383296068046128 4.327215348395093 9.6
  endloop
endfacet
facet normal -0.9772446561224933 -0.2121152565942153 -0.0
  outer loop
    vertex 1.508230105505558 3.701413062388177 11.399999999999999
    vertex 1.6411257699296642 3.0891441479990753 9.6
    vertex 1.6411257699296642 3.0891441479990753 11.399999999999999
  endloop
endfacet
facet normal -0.9772446561224933 -0.2121152565942153 -0.0
  outer loop
    vertex 1.6411257699296642 3.0891441479990753 9.6
    vertex 1.508230105505558 3.701413062388177 11.399999999999999
    vertex 1.508230105505558 3.701413062388177 9.6
  endloop
endfacet
facet normal -0.8890463837883046 -0.45781713322345047 -0.0
  outer loop
    vertex 1.6411257699296642 3.0891441479990753 11.399999999999999
    vertex 1.9279599801668978 2.532133719921185 9.6
    vertex 1.9279599801668978 2.532133719921185 11.399999999999999
  endloop
endfacet
facet normal -0.8890463837883046 -0.45781713322345047 -0.0
  outer loop
    vertex 1.9279599801668978 2.532133719921185 9.6
    vertex 1.6411257699296642 3.0891441479990753 11.399999999999999
    vertex 1.6411257699296642 3.0891441479990753 9.6
  endloop
endfacet
facet normal -0.7402610696175591 -0.6723195288020923 -0.0
  outer loop
    vertex 1.9279599801668978 2.532133719921185 11.399999999999999
    vertex 2.3491854588055365 2.0683411183247564 9.6
    vertex 2.3491854588055365 2.0683411183247564 11.399999999999999
  endloop
endfacet
facet normal -0.7402610696175591 -0.6723195288020923 -0.0
  outer loop
    vertex 2.3491854588055365 2.0683411183247564 9.6
    vertex 1.9279599801668978 2.532133719921185 11.399999999999999
    vertex 1.9279599801668978 2.532133719921185 9.6
  endloop
endfacet
facet normal -0.541028186891637 -0.8410044595534247 -0.0
  outer loop
    vertex 2.8760963855843733 1.7293730425550742 11.399999999999999
    vertex 2.3491854588055365 2.0683411183247564 9.6
    vertex 2.8760963855843733 1.7293730425550742 9.6
  endloop
endfacet
facet normal -0.541028186891637 -0.8410044595534247 -0.0
  outer loop
    vertex 2.3491854588055365 2.0683411183247564 9.6
    vertex 2.8760963855843733 1.7293730425550742 11.399999999999999
    vertex 2.3491854588055365 2.0683411183247564 11.399999999999999
  endloop
endfacet
facet normal -0.30492512732040156 -0.9523763262117748 -0.0
  outer loop
    vertex 3.4727846516049072 1.5383296068046115 11.399999999999999
    vertex 2.8760963855843733 1.7293730425550742 9.6
    vertex 3.4727846516049072 1.5383296068046115 9.6
  endloop
endfacet
facet normal -0.30492512732040156 -0.9523763262117748 -0.0
  outer loop
    vertex 2.8760963855843733 1.7293730425550742 9.6
    vertex 3.4727846516049072 1.5383296068046115 11.399999999999999
    vertex 2.8760963855843733 1.7293730425550742 11.399999999999999
  endloop
endfacet
facet normal -0.04804192423487939 -0.9988453201150868 -0.0
  outer loop
    vertex 4.098586937611823 1.508230105505557 11.399999999999999
    vertex 3.4727846516049072 1.5383296068046115 9.6
    vertex 4.098586937611823 1.508230105505557 9.6
  endloop
endfacet
facet normal -0.04804192423487939 -0.9988453201150868 -0.0
  outer loop
    vertex 3.4727846516049072 1.5383296068046115 9.6
    vertex 4.098586937611823 1.508230105505557 11.399999999999999
    vertex 3.4727846516049072 1.5383296068046115 11.399999999999999
  endloop
endfacet
facet normal 0.21211525659421593 -0.9772446561224931 0.0
  outer loop
    vertex 4.7108558520009245 1.6411257699296635 11.399999999999999
    vertex 4.098586937611823 1.508230105505557 9.6
    vertex 4.7108558520009245 1.6411257699296635 9.6
  endloop
endfacet
facet normal 0.21211525659421593 -0.9772446561224931 0.0
  outer loop
    vertex 4.098586937611823 1.508230105505557 9.6
    vertex 4.7108558520009245 1.6411257699296635 11.399999999999999
    vertex 4.098586937611823 1.508230105505557 11.399999999999999
  endloop
endfacet
facet normal 0.45781713322344963 -0.8890463837883051 0.0
  outer loop
    vertex 5.267866280078815 1.9279599801668967 11.399999999999999
    vertex 4.7108558520009245 1.6411257699296635 9.6
    vertex 5.267866280078815 1.9279599801668967 9.6
  endloop
endfacet
facet normal 0.45781713322344963 -0.8890463837883051 0.0
  outer loop
    vertex 4.7108558520009245 1.6411257699296635 9.6
    vertex 5.267866280078815 1.9279599801668967 11.399999999999999
    vertex 4.7108558520009245 1.6411257699296635 11.399999999999999
  endloop
endfacet
facet normal 0.6723195288020923 -0.7402610696175591 0.0
  outer loop
    vertex 5.731658881675243 2.3491854588055356 11.399999999999999
    vertex 5.267866280078815 1.9279599801668967 9.6
    vertex 5.731658881675243 2.3491854588055356 9.6
  endloop
endfacet
facet normal 0.6723195288020923 -0.7402610696175591 0.0
  outer loop
    vertex 5.267866280078815 1.9279599801668967 9.6
    vertex 5.731658881675243 2.3491854588055356 11.399999999999999
    vertex 5.267866280078815 1.9279599801668967 11.399999999999999
  endloop
endfacet
facet normal 0.8410044595534247 -0.541028186891637 0.0
  outer loop
    vertex 6.070626957444926 2.876096385584372 9.6
    vertex 5.731658881675243 2.3491854588055356 11.399999999999999
    vertex 5.731658881675243 2.3491854588055356 9.6
  endloop
endfacet
facet normal 0.8410044595534247 -0.541028186891637 0.0
  outer loop
    vertex 5.731658881675243 2.3491854588055356 11.399999999999999
    vertex 6.070626957444926 2.876096385584372 9.6
    vertex 6.070626957444926 2.876096385584372 11.399999999999999
  endloop
endfacet
facet normal 0.952376326211775 -0.30492512732040084 0.0
  outer loop
    vertex 6.261670393195388 3.4727846516049063 9.6
    vertex 6.070626957444926 2.876096385584372 11.399999999999999
    vertex 6.070626957444926 2.876096385584372 9.6
  endloop
endfacet
facet normal 0.952376326211775 -0.30492512732040084 0.0
  outer loop
    vertex 6.070626957444926 2.876096385584372 11.399999999999999
    vertex 6.261670393195388 3.4727846516049063 9.6
    vertex 6.261670393195388 3.4727846516049063 11.399999999999999
  endloop
endfacet
facet normal 0.0 0.0 -1.0
  outer loop
    vertex 6.3 6.3 8.6
    vertex 1.5 1.5 8.6
    vertex 1.5 6.3 8.6
  endloop
endfacet
facet normal 0.0 0.0 -1.0
  outer loop
    vertex 1.5 1.5 8.6
    vertex 6.3 6.3 8.6
    vertex 6.3 1.5 8.6
  endloop
endfacet
facet normal 1.0 -0.0 -0.0
  outer loop
    vertex 1.5 6.3 0.0
    vertex 1.5 1.5 8.6
    vertex 1.5 1.5 0.0
  endloop
endfacet
facet normal 1.0 -0.0 -0.0
  outer loop
    vertex 1.5 1.5 8.6
    vertex 1.5 6.3 0.0
    vertex 1.5 6.3 8.6
  endloop
endfacet
facet normal 0.0 -1.0 -0.0
  outer loop
    vertex 6.3 6.3 8.6
    vertex 1.5 6.3 0.0
    vertex 6.3 6.3 0.0
  endloop
endfacet
facet normal 0.0 -1.0 -0.0
  outer loop
    vertex 1.5 6.3 0.0
    vertex 6.3 6.3 8.6
    vertex 1.5 6.3 8.6
  endloop
endfacet
facet normal -1.0 -0.0 -0.0
  outer loop
    vertex 6.3 6.3 8.6
    vertex 6.3 1.5 0.0
    vertex 6.3 1.5 8.6
  endloop
endfacet
facet normal -1.0 -0.0 -0.0
  outer loop
    vertex 6.3 1.5 0.0
    vertex 6.3 6.3 8.6
    vertex 6.3 6.3 0.0
  endloop
endfacet
facet normal 0.0 1.0 0.0
  outer loop
    vertex 1.5 1.5 8.6
    vertex 6.3 1.5 0.0
    vertex 1.5 1.5 0.0
  endloop
endfacet
facet normal 0.0 1.0 0.0
  outer loop
    vertex 6.3 1.5 0.0
    vertex 1.5 1.5 8.6
    vertex 6.3 1.5 8.6
  endloop
endfacet
endsolid 1x1 Haut
